<svg width="32" height="32" viewBox="0 0 32 32" fill="none" xmlns="http://www.w3.org/2000/svg">
  <path 
    fillRule="evenodd" 
    clipRule="evenodd" 
    d="M26.9632 1.94782V0H32V17.9478C32 25.7086 24.8457 32 16 32C7.50762 32 0.606811 26.2282 0.0377959 18.9217H0V0H5.0696V1.94782L13.6352 1.94782V0H18.7048V1.94782L26.9632 1.94782ZM26.9632 17.9478V15.2162C26.3862 15.7325 25.7664 16.2228 25.1063 16.6846C22.9596 18.2092 20.4444 19.4002 17.7088 20.2071C14.9724 21.0142 12.0532 21.4261 9.11584 21.4261H5.80885C7.39455 25.0086 11.3657 27.5478 16 27.5478C22.0368 27.5478 26.9632 23.2498 26.9632 17.9478ZM14.1046 14.5948C13.1391 15.4939 12.0731 16.2735 10.8692 16.914C12.6639 16.7906 14.4183 16.4777 16.0606 15.9866C18.2976 15.337 20.2684 14.393 21.9082 13.2263C23.5473 12.06 24.8099 10.7006 25.6588 9.24118C26.1921 8.31984 26.5616 7.36582 26.7614 6.4H18.5327C18.3442 7.58374 17.9956 8.74552 17.5091 9.85846C16.7194 11.6219 15.5537 13.2324 14.1046 14.5948ZM5.0696 14.2517V6.4H13.3898C13.2498 7.02837 13.0466 7.64386 12.7845 8.238C12.2345 9.48048 11.4251 10.6014 10.4228 11.5397C9.42087 12.4777 8.22094 13.2144 6.92083 13.7144C6.32202 13.9466 5.70115 14.1261 5.0696 14.2517Z" 
    fill="#1D3AA7"
  />
</svg> 