<?xml version="1.0" standalone="no"?>
<!DOCTYPE svg PUBLIC "-//W3C//DTD SVG 20010904//EN"
 "http://www.w3.org/TR/2001/REC-SVG-20010904/DTD/svg10.dtd">
<svg version="1.0" xmlns="http://www.w3.org/2000/svg"
 width="1024.000000pt" height="1024.000000pt" viewBox="0 0 1024.000000 1024.000000"
 preserveAspectRatio="xMidYMid meet">

<g transform="translate(0.000000,1024.000000) scale(0.100000,-0.100000)"
fill="#000000" stroke="none">
<path d="M4835 8134 c-16 -2 -82 -11 -145 -20 -283 -38 -627 -143 -875 -266
-315 -156 -565 -338 -811 -590 -462 -470 -743 -1061 -819 -1722 -24 -201 -16
-579 14 -771 115 -711 447 -1314 980 -1778 145 -127 178 -152 316 -244 492
-327 1041 -493 1630 -493 953 0 1823 445 2386 1220 364 501 569 1130 569 1739
-1 748 -299 1493 -808 2022 -198 205 -382 356 -586 479 -360 216 -684 331
-1151 406 -95 15 -621 29 -700 18z m651 -78 c825 -108 1518 -512 1981 -1156
454 -631 638 -1403 512 -2154 -78 -468 -270 -911 -563 -1301 -108 -142 -322
-366 -461 -480 -397 -326 -887 -544 -1390 -619 -198 -30 -441 -41 -614 -28
-736 55 -1360 339 -1871 852 -307 307 -502 600 -653 980 -185 464 -244 1029
-161 1530 156 940 789 1760 1659 2149 263 117 586 204 880 237 153 16 517 11
681 -10z"/>
<path d="M4803 7905 c-388 -49 -779 -182 -1096 -371 -585 -350 -1027 -917
-1211 -1555 -155 -539 -137 -1159 49 -1689 49 -138 176 -400 253 -523 276
-439 670 -793 1137 -1022 420 -205 800 -286 1270 -272 437 13 824 116 1205
319 416 221 823 607 1049 996 438 752 519 1583 230 2358 -187 503 -526 947
-970 1271 -327 239 -749 406 -1214 479 -142 22 -555 28 -702 9z m492 -55 c518
-39 967 -195 1372 -477 146 -101 198 -145 341 -286 356 -351 610 -804 726
-1297 47 -200 60 -326 60 -585 0 -203 -4 -261 -23 -375 -78 -463 -252 -877
-522 -1240 -171 -231 -457 -492 -716 -656 -212 -134 -532 -268 -793 -333 -282
-69 -687 -88 -986 -46 -772 108 -1488 579 -1910 1256 -475 764 -525 1746 -129
2564 152 314 375 599 670 856 195 170 519 357 795 457 377 138 733 190 1115
162z"/>
<path d="M5035 7524 c-72 -40 -105 -98 -106 -192 -2 -108 62 -187 158 -199 59
-7 109 15 124 54 14 37 6 38 -29 3 -78 -77 -193 1 -196 135 -1 77 12 121 45
155 44 43 91 42 133 -5 39 -43 56 -44 56 -6 0 20 -8 34 -27 47 -38 25 -120 29
-158 8z"/>
<path d="M4598 7503 c-19 -5 -25 -23 -8 -23 13 0 26 -28 34 -72 l7 -38 -40 0
c-117 0 -156 -159 -64 -261 29 -32 42 -39 73 -39 30 0 43 6 59 26 16 21 24 24
34 15 11 -8 23 -8 47 0 32 12 32 12 13 28 -18 15 -44 109 -84 309 -14 65 -19
69 -71 55z m58 -238 c28 -99 29 -124 7 -141 -50 -38 -109 4 -133 95 -20 76 13
135 73 129 30 -3 32 -6 53 -83z"/>
<path d="M5342 7419 c-42 -9 -46 -13 -38 -44 8 -30 36 -33 43 -5 7 25 44 36
72 20 16 -8 21 -20 21 -49 l0 -38 -62 -7 c-92 -9 -131 -55 -104 -121 21 -50
78 -71 126 -45 13 7 21 6 30 -5 14 -16 65 -20 74 -6 3 5 -4 11 -15 14 -18 5
-21 11 -15 38 3 18 9 69 12 113 6 70 4 84 -12 103 -23 27 -86 42 -132 32z m90
-179 c-8 -77 -51 -112 -93 -74 -46 41 6 117 76 111 17 -2 19 -8 17 -37z"/>
<path d="M5595 7382 c-2 -2 1 -12 7 -21 13 -22 -26 -217 -49 -243 -18 -20 -11
-24 52 -33 38 -5 46 -4 33 5 -23 14 -22 56 3 145 11 39 21 86 23 107 3 35 2
36 -31 40 -18 2 -35 2 -38 0z"/>
<path d="M5915 7372 c-5 -4 -15 -16 -21 -27 -6 -11 -16 -20 -22 -20 -6 0 -14
-3 -18 -7 -4 -5 -2 -8 4 -8 7 0 12 -9 12 -20 0 -39 -63 -205 -84 -222 -21 -17
-21 -17 9 -28 17 -6 44 -14 60 -16 28 -5 29 -5 11 10 -18 15 -17 19 21 128 39
111 41 113 74 119 l34 6 -28 11 c-22 10 -27 17 -25 43 3 32 -8 45 -27 31z"/>
<path d="M5704 7360 c-12 -5 -25 -13 -28 -19 -9 -14 7 -21 24 -11 18 11 50 -6
50 -25 0 -18 12 -19 28 -3 17 17 15 39 -5 54 -21 15 -39 16 -69 4z"/>
<path d="M4245 7257 c-26 -26 -35 -30 -44 -20 -12 13 -21 11 -60 -16 -13 -8
-11 -13 7 -28 12 -10 39 -63 61 -118 22 -55 44 -101 49 -103 5 -1 22 2 38 8
25 10 27 13 12 21 -9 5 -33 52 -54 104 l-37 95 23 25 c34 36 75 34 95 -5 29
-57 65 -168 59 -184 -8 -20 6 -20 52 -1 36 15 36 15 16 32 -11 10 -32 54 -48
98 -16 44 -38 90 -51 103 -33 33 -78 29 -118 -11z"/>
<path d="M6060 7212 c-76 -38 -121 -153 -86 -220 31 -59 113 -89 154 -55 23
18 23 18 -28 18 -42 0 -55 4 -71 24 -19 23 -25 76 -11 98 5 8 22 7 65 -4 53
-13 61 -13 95 4 64 31 58 104 -12 137 -43 20 -63 20 -106 -2z m101 -22 c26
-14 24 -54 -3 -80 -18 -17 -32 -21 -66 -17 -24 3 -45 7 -48 10 -10 10 6 44 33
71 27 28 52 32 84 16z"/>
<path d="M6360 7210 c0 -33 -135 -281 -169 -311 -18 -14 -16 -16 23 -37 48
-26 83 -30 52 -7 -18 14 -15 22 71 178 l90 165 -28 16 c-35 21 -39 20 -39 -4z"/>
<path d="M3928 7128 c-60 -35 -76 -104 -38 -177 41 -81 119 -117 184 -86 53
25 69 57 64 125 -9 127 -112 195 -210 138z m116 -50 c51 -59 72 -119 56 -158
-25 -61 -97 -44 -153 36 -58 82 -43 164 29 164 26 0 40 -9 68 -42z"/>
<path d="M3673 6935 c-25 -25 -42 -49 -38 -55 5 -8 17 0 34 20 38 46 65 38
123 -34 26 -32 54 -74 63 -93 13 -27 19 -31 34 -24 43 24 42 35 -7 90 -95 107
-130 141 -147 141 -10 0 -38 -20 -62 -45z"/>
<path d="M6633 6960 c-23 -9 -46 -46 -57 -92 -4 -20 -13 -28 -27 -28 -36 0
-90 -32 -111 -64 -21 -35 -18 -79 9 -109 20 -21 76 -47 113 -51 19 -2 26 -10
28 -32 8 -63 42 -72 42 -11 0 23 4 47 8 53 10 15 69 34 108 34 40 0 44 12 9
28 -22 10 -33 8 -66 -9 -23 -11 -42 -19 -44 -17 -2 2 -9 52 -16 111 -11 102
-11 110 7 134 29 39 58 46 88 22 28 -22 33 -48 16 -80 -16 -29 16 -38 42 -11
19 18 20 24 8 51 -27 66 -94 96 -157 71z m-57 -187 c4 -27 8 -66 8 -88 1 -36
-1 -40 -27 -43 -30 -4 -87 44 -87 73 0 28 29 74 58 89 39 22 40 21 48 -31z"/>
<path d="M3575 6861 c-25 -10 -69 -87 -56 -96 6 -3 17 8 26 25 27 52 57 39
137 -60 38 -47 73 -86 78 -88 6 -2 22 6 36 17 l26 20 -26 12 c-14 7 -55 49
-91 95 -67 86 -81 94 -130 75z"/>
<path d="M4960 6839 c-190 -20 -393 -77 -565 -160 -441 -211 -787 -634 -891
-1088 -142 -624 69 -1280 535 -1659 238 -195 439 -294 721 -359 119 -27 137
-28 365 -28 213 0 251 3 342 23 664 149 1151 639 1295 1305 19 88 22 133 22
322 0 206 -1 227 -28 339 -99 423 -304 736 -654 998 -107 80 -217 140 -363
198 -156 61 -316 97 -496 110 -154 11 -163 11 -283 -1z m389 -75 c687 -101
1205 -584 1353 -1264 19 -90 22 -133 22 -305 0 -169 -3 -216 -22 -305 -47
-219 -131 -418 -253 -600 -68 -101 -226 -272 -325 -351 -209 -166 -478 -281
-759 -325 -149 -22 -426 -15 -569 16 -633 136 -1109 606 -1243 1230 -31 145
-42 395 -23 533 64 477 301 852 710 1124 318 212 727 303 1109 247z"/>
<path d="M4455 6107 c-22 -28 -120 -150 -217 -269 -98 -120 -178 -222 -178
-228 0 -12 31 -52 608 -775 233 -291 430 -534 437 -540 19 -13 39 7 157 160
56 71 113 144 127 161 36 43 21 24 373 469 174 220 342 430 372 466 l55 65
-42 51 c-23 28 -76 91 -117 139 -140 163 -185 217 -210 249 -14 17 -39 48 -57
68 l-32 37 -618 0 -618 -1 -40 -52z m268 -29 c-25 -29 -276 -385 -292 -415
-11 -22 -17 -23 -149 -23 -75 0 -132 4 -126 8 5 4 41 45 79 92 38 47 87 108
110 135 23 28 74 89 114 138 l72 87 106 0 106 0 -20 -22z m787 -100 c98 -140
213 -307 224 -325 6 -10 -121 -13 -623 -13 l-630 0 127 178 c70 98 143 201
162 230 l35 51 310 1 310 0 85 -122z m196 114 c6 -4 93 -106 194 -227 l183
-220 -134 -3 c-74 -1 -135 1 -136 5 -2 4 -67 98 -144 208 -78 110 -148 210
-157 223 l-14 22 98 0 c55 0 104 -4 110 -8z m-616 -1093 c0 -323 -4 -578 -9
-575 -4 3 -53 61 -107 128 -199 248 -255 318 -455 568 -210 261 -339 425 -353
448 -6 9 89 12 458 12 l466 0 0 -581z m980 575 c0 -5 -119 -157 -525 -667 -83
-104 -161 -203 -175 -221 -65 -86 -213 -271 -218 -274 -4 -1 -6 261 -4 583 l2
585 460 0 c253 0 460 -3 460 -6z"/>
<path d="M3460 6765 l-24 -25 21 -15 c33 -23 153 -171 153 -188 0 -27 15 -27
48 -1 38 30 40 40 9 48 -13 3 -55 45 -97 98 -41 51 -77 96 -80 101 -3 4 -17
-4 -30 -18z"/>
<path d="M3304 6575 c-60 -36 -82 -102 -38 -119 25 -10 33 2 28 38 -3 23 1 40
12 50 21 21 36 20 67 -4 21 -17 24 -25 18 -53 -5 -18 -14 -44 -21 -57 -29 -53
3 -110 61 -110 27 0 69 29 69 48 0 4 17 25 38 46 35 37 36 39 18 50 -11 6 -47
34 -81 62 -100 84 -109 86 -171 49z m163 -107 c18 -18 33 -39 33 -47 0 -42
-73 -69 -99 -37 -10 12 -8 26 6 65 10 28 20 51 22 51 3 0 20 -14 38 -32z"/>
<path d="M6968 6516 c-123 -44 -193 -183 -137 -272 23 -38 69 -51 49 -15 -5
11 -15 23 -20 26 -17 10 -11 63 10 106 29 57 127 119 187 119 34 0 50 -6 70
-26 22 -22 25 -32 20 -70 -3 -33 0 -49 11 -61 14 -14 17 -13 29 3 16 22 11 51
-20 114 -39 80 -111 107 -199 76z"/>
<path d="M3045 6409 c-7 -21 20 -51 40 -45 15 4 18 35 5 51 -18 21 -38 18 -45
-6z"/>
<path d="M3157 6372 c-20 -22 -22 -32 -6 -32 11 0 26 -10 163 -104 38 -26 69
-46 70 -44 1 2 9 15 18 29 l17 26 -47 21 c-26 12 -78 44 -117 72 -38 27 -72
50 -76 50 -3 0 -13 -8 -22 -18z"/>
<path d="M3045 6244 c-11 -3 -30 -7 -42 -10 -28 -5 -61 -57 -96 -148 -27 -69
-27 -89 -3 -80 7 3 40 -7 72 -21 32 -15 93 -40 136 -56 42 -16 82 -36 88 -44
7 -8 16 -15 20 -15 15 0 82 150 87 193 5 42 4 45 -48 91 -78 67 -159 101 -214
90z m132 -99 c58 -37 93 -82 93 -121 0 -26 -30 -74 -46 -74 -17 0 -275 107
-287 119 -8 8 23 70 52 105 27 31 113 18 188 -29z"/>
<path d="M7057 6176 c-130 -47 -145 -207 -25 -257 58 -24 162 20 194 83 30 58
-1 158 -54 180 -27 11 -74 8 -115 -6z m134 -57 c45 -45 -4 -121 -99 -153 -39
-14 -47 -14 -72 -1 -18 9 -31 26 -35 44 -11 49 22 90 91 115 56 21 91 19 115
-5z"/>
<path d="M2966 5653 c-38 -124 -58 -481 -36 -665 15 -133 38 -238 53 -238 36
1 39 15 20 106 -26 129 -26 546 0 691 10 56 16 107 12 113 -10 16 -43 12 -49
-7z"/>
<path d="M7227 5659 c-9 -6 -15 -14 -12 -19 10 -17 34 -162 46 -281 13 -139 7
-294 -17 -472 -9 -64 -15 -119 -13 -121 2 -2 12 -6 23 -8 14 -2 21 7 31 39 36
121 51 465 27 628 -30 196 -42 245 -60 245 -4 0 -15 -5 -25 -11z"/>
<path d="M7000 4509 c-31 -67 -38 -125 -19 -162 55 -106 211 -160 293 -101 33
24 77 112 83 167 5 39 3 42 -18 43 -30 2 -275 88 -294 104 -12 10 -20 1 -45
-51z m180 -61 c58 -22 113 -42 123 -45 29 -9 14 -62 -29 -102 -33 -31 -40 -33
-82 -27 -97 13 -192 82 -192 138 0 16 7 42 16 59 17 35 9 36 164 -23z"/>
<path d="M3090 4509 c-40 -16 -89 -70 -96 -104 -9 -52 12 -113 49 -135 41 -25
120 -26 167 -2 93 46 108 182 26 236 -28 18 -106 21 -146 5z m152 -56 c26 -23
23 -75 -4 -100 -86 -78 -218 -74 -218 7 0 28 35 67 85 93 40 22 113 22 137 0z"/>
<path d="M6880 4253 l-21 -28 26 -7 c26 -6 155 -106 185 -142 16 -18 17 -17
34 9 10 16 14 30 9 34 -47 30 -193 147 -193 153 0 16 -19 7 -40 -19z"/>
<path d="M3340 4232 c0 -4 8 -12 19 -19 24 -15 35 -72 21 -109 -38 -100 -203
-162 -265 -99 -31 30 -33 75 -5 100 27 24 25 35 -5 35 -17 0 -29 -9 -40 -31
-21 -39 -12 -80 27 -125 115 -131 373 7 328 176 -6 23 -20 50 -31 61 -19 19
-49 26 -49 11z"/>
<path d="M6787 4114 c-15 -14 -30 -39 -34 -55 -3 -18 -18 -36 -39 -49 -18 -12
-36 -30 -39 -40 -3 -11 -22 -34 -41 -52 -30 -29 -32 -34 -16 -38 25 -7 174
-168 167 -180 -13 -20 32 -9 51 13 35 40 39 50 16 43 -16 -5 -38 10 -102 73
l-83 79 22 31 c12 17 29 31 38 31 8 0 42 -20 75 -45 101 -76 157 -78 205 -6
24 35 31 95 13 106 -5 3 -10 -1 -10 -10 0 -30 -33 -87 -55 -97 -17 -8 -32 -6
-59 7 -33 16 -50 45 -26 45 5 0 22 18 37 41 26 40 27 41 9 74 -31 58 -85 70
-129 29z m93 -46 c13 -25 13 -31 0 -55 -27 -47 -45 -51 -80 -18 -16 16 -30 38
-30 49 0 57 81 75 110 24z"/>
<path d="M7153 4071 c-22 -28 -16 -51 12 -51 16 0 45 33 45 52 0 13 -19 28
-34 28 -1 0 -12 -13 -23 -29z"/>
<path d="M3610 3905 c0 -2 5 -15 11 -28 16 -36 -2 -62 -69 -97 -31 -16 -51
-29 -44 -30 7 0 10 -4 7 -10 -9 -15 0 -12 40 10 55 31 59 28 52 -42 -3 -35 -2
-85 3 -113 10 -63 -6 -95 -50 -95 -31 0 -70 30 -70 54 0 7 9 25 20 39 25 32
25 32 -5 35 -28 2 -55 -30 -55 -65 0 -13 13 -37 28 -54 21 -24 39 -32 73 -36
41 -5 50 -2 80 25 27 24 33 36 32 67 -1 37 -1 37 32 31 82 -16 149 55 124 131
-13 40 -54 69 -111 78 -34 6 -38 10 -38 36 0 16 -9 38 -20 49 -18 18 -40 27
-40 15z m108 -126 c59 -20 79 -84 42 -132 -25 -32 -53 -41 -80 -27 -17 9 -20
21 -20 68 0 62 8 102 20 102 4 0 21 -5 38 -11z"/>
<path d="M6497 3802 c-9 -10 -17 -21 -17 -23 0 -3 39 -44 86 -92 93 -94 96
-105 50 -154 -34 -36 -33 -36 -137 85 -39 45 -75 82 -81 82 -5 0 -17 -7 -26
-16 -14 -15 -14 -18 -1 -28 35 -26 149 -176 149 -195 0 -23 -27 -41 -63 -41
-19 0 -44 21 -98 84 -41 47 -79 85 -85 85 -5 1 -19 -6 -30 -14 -17 -14 -18
-16 -2 -25 9 -6 46 -46 83 -89 36 -44 75 -83 86 -86 31 -10 63 1 99 35 18 17
45 38 60 47 15 9 39 33 51 54 13 21 33 42 44 45 28 10 95 75 88 86 -3 5 -16 7
-29 4 -35 -9 -54 5 -130 91 -37 43 -70 79 -74 81 -3 1 -14 -6 -23 -16z"/>
<path d="M3976 3548 c-7 -31 -134 -258 -157 -284 -22 -24 -23 -30 -6 -37 6 -3
30 -13 52 -22 40 -17 40 -17 22 3 -21 24 -21 25 90 221 61 107 64 116 47 128
-26 19 -41 16 -48 -9z"/>
<path d="M6093 3490 c-35 -21 -63 -66 -63 -102 0 -64 67 -153 127 -172 33 -11
89 3 117 29 54 50 51 130 -7 201 -52 62 -117 79 -174 44z m117 -57 c74 -75 88
-159 30 -183 -23 -10 -35 -9 -64 5 -58 28 -112 116 -101 166 16 74 68 79 135
12z"/>
<path d="M4112 3464 c-12 -8 -22 -22 -22 -30 0 -20 37 -18 48 3 8 13 16 15 42
7 40 -11 52 -40 34 -82 -12 -29 -15 -31 -39 -22 -63 24 -137 5 -161 -41 -27
-54 22 -114 88 -107 25 2 35 -2 43 -17 7 -13 23 -21 45 -23 30 -3 32 -2 21 12
-11 13 -7 30 23 102 53 128 49 157 -31 198 -40 20 -62 20 -91 0z m66 -144 c20
0 14 -33 -13 -73 -29 -42 -61 -49 -90 -17 -15 17 -16 24 -6 49 14 32 46 52 76
46 11 -3 26 -5 33 -5z"/>
<path d="M5902 3393 c-20 -14 -21 -18 -8 -32 19 -21 86 -177 86 -201 0 -19
-40 -50 -64 -50 -23 0 -49 40 -86 138 -36 95 -50 107 -90 82 -13 -8 -13 -11 1
-22 9 -7 22 -31 29 -53 25 -77 69 -164 89 -174 47 -25 95 -9 122 40 8 16 13
18 24 9 10 -8 22 -7 47 6 32 17 32 17 11 27 -19 8 -70 107 -112 220 -12 31
-17 32 -49 10z"/>
<path d="M4382 3353 c0 -24 -16 -74 -63 -191 -5 -12 -18 -26 -30 -30 -19 -7
-16 -11 29 -30 62 -27 65 -27 50 -3 -9 15 -7 31 12 82 13 35 31 80 40 99 34
69 34 77 -1 89 -18 6 -33 11 -35 11 -1 0 -2 -12 -2 -27z"/>
<path d="M4620 3305 c0 -3 5 -13 11 -23 8 -13 7 -34 -5 -82 -27 -103 -45 -134
-83 -138 -27 -3 -35 1 -45 22 -14 32 -34 34 -44 4 -11 -35 30 -62 82 -54 30 4
44 2 47 -8 6 -15 65 -27 73 -14 3 4 0 8 -5 8 -18 0 -12 49 18 158 l28 103 -35
14 c-38 16 -42 17 -42 10z"/>
<path d="M5552 3278 c-7 -7 -31 -14 -54 -15 -50 -4 -56 -8 -36 -30 16 -18 88
-298 88 -340 0 -18 6 -23 24 -23 13 0 32 3 41 6 14 6 14 8 1 23 -8 9 -18 35
-22 58 -6 39 -5 40 19 36 41 -8 96 15 112 47 8 16 15 51 15 78 0 100 -56 172
-134 172 -23 0 -47 -5 -54 -12z m81 -38 c76 -66 76 -230 -1 -230 -40 0 -59 28
-82 121 l-23 92 27 24 c35 29 38 29 79 -7z"/>
<path d="M4781 3244 c8 -10 4 -32 -16 -90 -30 -87 -28 -129 8 -161 57 -52 123
-58 165 -16 30 30 16 44 -20 19 -31 -22 -60 -20 -92 5 -21 17 -26 29 -26 65 0
48 -2 47 72 27 31 -8 107 33 114 61 18 72 -25 103 -139 104 -63 0 -76 -3 -66
-14z m141 -21 c50 -45 -10 -120 -85 -106 -32 6 -32 10 -11 62 14 34 37 53 73
60 3 1 13 -6 23 -16z"/>
<path d="M5075 3228 c-21 -18 -26 -30 -21 -44 7 -18 9 -17 28 9 21 29 62 36
100 16 48 -26 73 -151 47 -243 -25 -91 -100 -114 -164 -50 -39 38 -51 39 -41
2 16 -61 133 -86 193 -42 51 37 78 100 78 179 0 118 -46 180 -143 192 -41 5
-52 2 -77 -19z"/>
</g>
</svg>
